<svg xmlns="http://www.w3.org/2000/svg" viewBox="0 0 1024 1024">
<rect width="1024" height="1024" rx="180" fill="#D4A64F"/>
<path d="M300 300 A260 260 0 0 1 724 300" fill="none" stroke="#111111" stroke-width="36"/>
<g fill="#111111">
<rect x="430" y="300" width="164" height="250" rx="70"/>
<rect x="410" y="350" width="204" height="24" rx="12"/>
<rect x="410" y="410" width="204" height="24" rx="12"/>
<rect x="410" y="470" width="204" height="24" rx="12"/>
<path d="M470 550 h84 v90 h-84z"/>
<path d="M430 550 q82 70 164 0" fill="none" stroke="#111111" stroke-width="24"/>
</g>
<g fill="#111111">
<polygon points="180,820 330,620 430,620 320,820"/>
<polygon points="380,820 470,620 554,620 644,820"/>
<polygon points="704,820 594,620 694,620 844,820"/>
</g>
</svg>